<?xml version="1.0" encoding="UTF-8"?>
<svg id="Layer_1" data-name="Layer 1" xmlns="http://www.w3.org/2000/svg" xmlns:xlink="http://www.w3.org/1999/xlink" viewBox="0 0 411.55 222.58">
  <defs>
    <style>
      .cls-1 {
        fill: url(#linear-gradient-2);
      }

      .cls-2 {
        fill: #77a4a4;
      }

      .cls-3, .cls-4 {
        fill: #0f3a3d;
      }

      .cls-5 {
        fill: #1d6868;
      }

      .cls-4 {
        font-family: Aldhabi, Aldhabi;
        font-size: 39.24px;
      }

      .cls-6 {
        fill: url(#linear-gradient-3);
      }

      .cls-7 {
        fill: url(#linear-gradient);
      }

      .cls-8 {
        fill: #165354;
      }
    </style>
    <linearGradient id="linear-gradient" x1="308.99" y1="-23.87" x2="223.88" y2="71.26" gradientUnits="userSpaceOnUse">
      <stop offset=".5" stop-color="#0f3a3d"/>
      <stop offset=".57" stop-color="#1d6868"/>
      <stop offset=".73" stop-color="#a4b6a9"/>
    </linearGradient>
    <linearGradient id="linear-gradient-2" x1="247.31" y1="-47.38" x2="191.52" y2="80.28" gradientUnits="userSpaceOnUse">
      <stop offset=".5" stop-color="#0f3a3d"/>
      <stop offset=".61" stop-color="#1d6868"/>
      <stop offset=".72" stop-color="#a4b6a9"/>
    </linearGradient>
    <linearGradient id="linear-gradient-3" x1="153.61" y1="-19.57" x2="153.15" y2="90.17" gradientUnits="userSpaceOnUse">
      <stop offset=".5" stop-color="#0f3a3d"/>
      <stop offset=".61" stop-color="#77a4a4"/>
      <stop offset=".81" stop-color="#baccbe"/>
    </linearGradient>
  </defs>
  <g>
    <path class="cls-3" d="m48.39,124.49c0,6.23-3.05,9.34-9.15,9.34H14.98v36.29H0v-100.17h39.23c6.1,0,9.15,3.07,9.15,9.22v45.32Zm-15.11-3.52v-38.15H14.98v38.15h18.3Z"/>
    <path class="cls-8" d="m91.98,132.49h-14.53v-14.79l-11.59.26v52.16h-14.66v-64.65h14.66v2.37c3.03-.55,6.04-1.11,9.02-1.66,3.63-.64,6.66-.96,9.09-.96,5.33,0,8,2.62,8,7.87v19.39Z"/>
    <path class="cls-5" d="m137.42,162.12c0,5.33-2.71,8-8.13,8h-26.24c-5.5,0-8.26-2.67-8.26-8v-48.64c0-5.33,2.75-8,8.26-8h26.24c5.42,0,8.13,2.67,8.13,8v48.64Zm-14.34-4.16v-40.26h-13.89v40.26h13.89Z"/>
    <path class="cls-2" d="m200.78,170.12h-14.4v-49.41c0-2.6.3-6.23.9-10.88l-12.93,51.14h-7.62l-12.99-51.14c.6,4.74.9,8.36.9,10.88v49.41h-14.4v-100.17h14.14l15.75,55.36c.17.6.3,2.11.38,4.54,0-1.07.13-2.58.38-4.54l15.75-55.36h14.14v100.17Z"/>
    <path class="cls-2" d="m245.52,170.12h-14.02v-2.24c-3.33.51-6.66,1.02-9.99,1.54-4.35.64-7.66.96-9.92.96-5.33,0-8-2.62-8-7.87v-23.3c0-5.33,2.75-8,8.26-8h19.78v-14.85h-14.02v9.22h-13.25v-12.1c0-5.33,2.75-8,8.26-8h24.77c5.42,0,8.13,2.67,8.13,8v56.64Zm-13.89-11.65v-17.35h-14.02v17.86l14.02-.51Z"/>
    <path class="cls-2" d="m289.24,162.12c0,5.33-2.71,8-8.13,8h-24.64c-5.42,0-8.13-2.67-8.13-8v-13.89h14.02v10.88h12.86v-10.24l-22.47-13.25c-2.94-1.75-4.42-4.1-4.42-7.04v-15.1c0-5.33,2.75-8,8.26-8h24.39c5.42,0,8.13,2.67,8.13,8v12.99h-13.89v-9.99h-12.86v9.34l22.4,13.12c2.99,1.71,4.48,4.1,4.48,7.17v16Z"/>
    <path class="cls-5" d="m323.35,170.12h-16.26c-5.42,0-8.13-2.67-8.13-8v-44.16h-6.91v-12.48h6.91v-17.54h14.59v17.54h9.41v12.48h-9.41v39.68h9.79v12.48Z"/>
    <path class="cls-8" d="m367.97,162.12c0,5.33-2.75,8-8.26,8h-25.28c-5.5,0-8.26-2.67-8.26-8v-48.64c0-5.33,2.75-8,8.26-8h25.28c5.5,0,8.26,2.67,8.26,8v23.75l-4.03,4.03h-23.75v18.11h13.76v-10.75h14.02v13.5Zm-14.02-30.4v-15.49h-13.76v15.49h13.76Z"/>
    <path class="cls-3" d="m411.55,132.49h-14.53v-14.79l-11.59.26v52.16h-14.66v-64.65h14.66v2.37c3.03-.55,6.04-1.11,9.02-1.66,3.63-.64,6.66-.96,9.09-.96,5.33,0,8,2.62,8,7.87v19.39Z"/>
  </g>
  <text class="cls-4" transform="translate(0 203.35)"><tspan x="0" y="0">professional project management portal</tspan></text>
  <g>
    <path class="cls-7" d="m285.08,75.27l28.1,1.43S277.4,16.65,227.48,1.64c-6.62-1.99-13.67-2.14-20.4-.58-5.77,1.34-13.39,3.71-21.56,7.84,20.77,3.46,52.32,4.28,99.56,66.37Z"/>
    <path class="cls-1" d="m249.45,74.25c7.15-.21,14.29-.41,21.44-.62-7.24-11.38-21.84-30.64-46.69-43.77-21.5-11.36-39.59-12.28-43.57-12.42-6.47-.23-13.97-.43-22.8,2.85-14.85,5.51-23.02,16.97-26.26,22.19,3.77-2.23,9.27-5.04,16.29-7.13,18.7-5.57,34.5-1.95,42.14-.2,32.38,7.4,52.93,30.98,59.45,39.09Z"/>
    <path class="cls-6" d="m199.37,47.78c6.52,1,8.67,1.9,8.75,1.63.28-.89-21.99-12.43-49.68-11.6-2.84.08-6.88.22-11.2,1.02-25.79,4.76-42.36,31.39-48.87,43.42,5.2-6.22,12.7-13.62,23.01-20.01,12.14-7.52,22.95-10.41,29.11-12.01,2.33-.6,9.45-2.37,18.93-3.26,14.09-1.32,25.15.08,29.93.81Z"/>
  </g>
</svg>